<svg xmlns="http://www.w3.org/2000/svg" version="1.1" xmlns:xlink="http://www.w3.org/1999/xlink" xmlns:svgjs="http://svgjs.dev/svgjs" width="1440" height="560" preserveAspectRatio="none" viewBox="0 0 1440 560"><g mask="url(&quot;#SvgjsMask1130&quot;)" fill="none"><rect width="1440" height="560" x="0" y="0" fill="url(&quot;#SvgjsLinearGradient1131&quot;)"></rect><path d="M1440 0L964.19 0L1440 35.4z" fill="rgba(255, 255, 255, .1)"></path><path d="M964.19 0L1440 35.4L1440 315.77L693.1500000000001 0z" fill="rgba(255, 255, 255, .075)"></path><path d="M693.15 0L1440 315.77L1440 401.96L467.06999999999994 0z" fill="rgba(255, 255, 255, .05)"></path><path d="M467.06999999999994 0L1440 401.96L1440 406.2L460.6599999999999 0z" fill="rgba(255, 255, 255, .025)"></path><path d="M0 560L2.42 560L0 426.8z" fill="rgba(0, 0, 0, .1)"></path><path d="M0 426.8L2.42 560L175.04 560L0 294.93z" fill="rgba(0, 0, 0, .075)"></path><path d="M0 294.93L175.04 560L632.68 560L0 163.56z" fill="rgba(0, 0, 0, .05)"></path><path d="M0 163.56L632.68 560L755.2099999999999 560L0 147.35z" fill="rgba(0, 0, 0, .025)"></path></g><defs><mask id="SvgjsMask1130"><rect width="1440" height="560" fill="#ffffff"></rect></mask><linearGradient x1="15.28%" y1="-39.29%" x2="84.72%" y2="139.29%" gradientUnits="userSpaceOnUse" id="SvgjsLinearGradient1131"><stop stop-color="#0e2a47" offset="0"></stop><stop stop-color="rgba(158, 0, 125, 0.9)" offset="1"></stop></linearGradient></defs></svg>